# xmcd CD database file
#
# Track frame offsets:
#	150
#	10095
#	27372
#	42387
#	51880
#	62027
#	74568
#	88008
#	101800
#	115251
#	130746
#	144595
#	155789
#	167192
#
# Disc length: 2426 seconds
#
# Revision: 0
# Processed by: cddbd v1.5.2PL0 Copyright (c) Steve Scherf et al.
# Submitted via: CDex 1.51
#
DISCID=ca09780e
DTITLE=verschieden - Trucker Songs
DYEAR=1900
DGENRE=Country
TTITLE0=Movin on
TTITLE1=Convoi
TTITLE2=My Elusive Dreams
TTITLE3=Truck Drivin Son of a Gun
TTITLE4=Six Days of The Road
TTITLE5=Freightliner Fever
TTITLE6=Ghost Riders in The Sky
TTITLE7=Gipsy Woman
TTITLE8=My Baby Thinks he`s a Train
TTITLE9=Midnight Angel
TTITLE10=Detroit City
TTITLE11=Blue Moon
TTITLE12=All The Gold in California
TTITLE13=Yellow Rippon
EXTD=
EXTT0=
EXTT1=
EXTT2=
EXTT3=
EXTT4=
EXTT5=
EXTT6=
EXTT7=
EXTT8=
EXTT9=
EXTT10=
EXTT11=
EXTT12=
EXTT13=
PLAYORDER=
